<svg width="24" height="25" viewBox="0 0 24 25" fill="none" xmlns="http://www.w3.org/2000/svg">
<g id="icons/Heart/Line">
<path id="Shape" fill-rule="evenodd" clip-rule="evenodd" d="M12.6924 7.58369C12.3055 7.955 11.6945 7.955 11.3076 7.58369L10.6152 6.91923C9.80477 6.1415 8.70994 5.66663 7.5 5.66663C5.01472 5.66663 3 7.68134 3 10.1666C3 12.5493 4.28979 14.5167 6.15176 16.1332C8.01532 17.7511 10.2434 18.8241 11.5746 19.3717C11.853 19.4862 12.147 19.4862 12.4254 19.3717C13.7566 18.8241 15.9847 17.7511 17.8482 16.1332C19.7102 14.5167 21 12.5492 21 10.1666C21 7.68134 18.9853 5.66663 16.5 5.66663C15.2901 5.66663 14.1952 6.1415 13.3848 6.91923L12.6924 7.58369ZM12 5.4762C10.8321 4.35543 9.24649 3.66663 7.5 3.66663C3.91015 3.66663 1 6.57678 1 10.1666C1 16.5349 7.97034 20.0516 10.8138 21.2213C11.5796 21.5363 12.4204 21.5363 13.1862 21.2213C16.0297 20.0516 23 16.5349 23 10.1666C23 6.57678 20.0899 3.66663 16.5 3.66663C14.7535 3.66663 13.1679 4.35543 12 5.4762Z" fill="#141718"/>
</g>
</svg>
